<?xml version="1.0" encoding="utf-8"?>
<!-- Generator: Adobe Illustrator 16.0.3, SVG Export Plug-In . SVG Version: 6.00 Build 0)  -->
<!DOCTYPE svg PUBLIC "-//W3C//DTD SVG 1.1//EN" "http://www.w3.org/Graphics/SVG/1.1/DTD/svg11.dtd">
<svg version="1.1" id="Capa_1" xmlns="http://www.w3.org/2000/svg" xmlns:xlink="http://www.w3.org/1999/xlink" x="0px" y="0px"
	 width="100px" height="133px" viewBox="0 0 100 133" enable-background="new 0 0 100 133" xml:space="preserve">
<path id="location-2-icon" fill="#0072BC" d="M50.5,26.401c11.811,0,21.417,9.607,21.417,21.417
	c0,13.627-14.209,35.872-21.417,48.009C38.301,75.286,29.083,59.589,29.083,47.818C29.083,36.009,38.69,26.401,50.5,26.401
	 M50.5,16.936c-17.056,0-30.883,13.827-30.883,30.883c0,17.057,13.516,36.876,30.883,66.617
	c17.367-29.74,30.883-49.561,30.883-66.617C81.383,30.763,67.557,16.936,50.5,16.936L50.5,16.936z M50.5,36.8
	c-5.934,0-10.743,4.81-10.743,10.742c0,5.934,4.81,10.744,10.743,10.744c5.934,0,10.743-4.811,10.743-10.744S56.434,36.8,50.5,36.8
	L50.5,36.8z"/>
</svg>
