<?xml version="1.0" encoding="utf-8"?>
<!-- Generator: Adobe Illustrator 16.0.3, SVG Export Plug-In . SVG Version: 6.00 Build 0)  -->
<!DOCTYPE svg PUBLIC "-//W3C//DTD SVG 1.1//EN" "http://www.w3.org/Graphics/SVG/1.1/DTD/svg11.dtd">
<svg version="1.1" id="Capa_1" xmlns="http://www.w3.org/2000/svg" xmlns:xlink="http://www.w3.org/1999/xlink" x="0px" y="0px"
	 width="100px" height="133px" viewBox="0 0 100 133" enable-background="new 0 0 100 133" xml:space="preserve">
<g>
	<path fill="#ED1D24" d="M33.012,80.226l1.529-1.529c-5.606-6.625-8.409-14.269-8.409-22.932c0-9.85,3.44-18.218,10.319-25.098
		c6.88-6.88,15.205-10.319,24.97-10.319c9.771,0,18.091,3.439,24.971,10.319c6.88,6.879,10.319,15.204,10.319,24.97
		c0,9.77-3.439,18.09-10.319,24.97S71.148,90.927,61.295,90.927c-8.663,0-16.307-2.803-22.932-8.408l-1.529,1.528v4.332
		L9.825,115.388l-8.153-8.153l27.009-27.009H33.012z M85.756,55.765c0-6.792-2.377-12.569-7.135-17.326
		c-4.754-4.754-10.53-7.135-17.326-7.135c-6.792,0-12.569,2.381-17.327,7.135c-4.753,4.757-7.134,10.534-7.134,17.326
		c0,6.796,2.381,12.572,7.134,17.326c4.758,4.758,10.535,7.135,17.327,7.135c6.796,0,12.572-2.377,17.326-7.135
		C83.379,68.337,85.756,62.561,85.756,55.765z"/>
</g>
</svg>
